<svg width="1440" height="912" viewBox="0 0 1440 912" fill="none" xmlns="http://www.w3.org/2000/svg">
<path d="M876.053 -844.75L875.873 -845.064L875.519 -844.991C859.513 -841.694 842.091 -842.564 825.61 -846.98C760.869 -864.327 722.999 -930.166 740.404 -995.124C757.809 -1060.08 824.704 -1097.85 888.266 -1080.82C953.007 -1063.47 990.877 -997.632 973.471 -932.673C969.04 -916.137 961.08 -900.556 950.232 -888.291L949.994 -888.022L950.173 -887.71L1566.37 183.636L1609.58 258.766L1637.24 306.849L1637.84 307.897L1638.15 306.729L1686.13 127.661L1686.19 127.462L1686.08 127.283L1230.09 -667.27L1229.92 -667.562L1229.59 -667.517C1213.87 -665.395 1197.62 -665.955 1182.33 -670.053C1117.59 -687.4 1079.72 -753.238 1097.12 -818.196C1114.53 -883.154 1180.24 -921.238 1244.98 -903.89C1309.72 -886.543 1347.59 -820.704 1330.19 -755.746C1325.13 -736.857 1315.99 -721.585 1304.8 -708.111L1304.58 -707.843L1304.75 -707.542L1716.99 9.19314L1717.6 10.242L1717.91 9.07329L1755.72 -132.046L1755.77 -132.246L1755.67 -132.425L1535.29 -515.585L1535.13 -515.876L1534.79 -515.831C1519.08 -513.71 1502.83 -514.269 1486.35 -518.684C1421.61 -536.031 1383.74 -601.869 1401.14 -666.827C1418.55 -731.786 1484.27 -769.869 1549.01 -752.521C1613.75 -735.174 1651.62 -669.336 1634.21 -604.377C1629.46 -586.655 1621.5 -571.069 1610.33 -557.611L1610.1 -557.343L1610.28 -557.042L1729.11 -350.436L1847.84 -144.009L1847.6 -143.118L1847.31 -142.027L1847.01 -140.936L1846.72 -139.845L1846.43 -138.755L1846.14 -137.664L1845.85 -136.573L1845.55 -135.482L1845.26 -134.392L1844.97 -133.301L1844.68 -132.21L1844.38 -131.12L1844.09 -130.029L1843.8 -128.939L1843.51 -127.848L1843.21 -126.758L1842.92 -125.667L1842.63 -124.577L1842.34 -123.486L1842.05 -122.396L1841.75 -121.305L1841.46 -120.215L1841.17 -119.125L1840.88 -118.035L1840.59 -116.944L1840.29 -115.854L1840 -114.764L1839.71 -113.674L1839.42 -112.583L1839.12 -111.493L1838.83 -110.403L1838.54 -109.313L1838.25 -108.223L1837.96 -107.133L1837.66 -106.043L1837.37 -104.953L1837.08 -103.863L1836.79 -102.773L1836.5 -101.683L1836.2 -100.593L1835.91 -99.5034L1835.62 -98.4135L1835.33 -97.3238L1835.04 -96.234L1834.74 -95.1442L1834.45 -94.0545L1834.16 -92.9648L1833.87 -91.8752L1833.58 -90.7854L1833.28 -89.6958L1832.99 -88.6062L1832.7 -87.5166L1832.41 -86.4271L1832.12 -85.3375L1831.82 -84.248L1831.53 -83.1585L1831.24 -82.069L1830.95 -80.9796L1830.66 -79.8902L1830.37 -78.8008L1830.07 -77.7114L1829.78 -76.6221L1829.49 -75.5328L1829.2 -74.4434L1828.91 -73.3542L1828.61 -72.2649L1828.32 -71.1757L1828.03 -70.0865L1827.74 -68.9973L1827.45 -67.9082L1827.15 -66.819L1826.86 -65.7299L1826.57 -64.6408L1826.28 -63.5518L1825.99 -62.4627L1825.7 -61.3737L1825.4 -60.2847L1825.11 -59.1957L1824.82 -58.1068L1824.53 -57.0179L1824.24 -55.929L1823.94 -54.8401L1823.65 -53.7512L1823.36 -52.6624L1823.07 -51.5736L1822.78 -50.4848L1822.49 -49.3961L1822.19 -48.3073L1821.9 -47.2186L1821.61 -46.1299L1821.32 -45.0412L1821.03 -43.9525L1820.74 -42.8639L1820.44 -41.7753L1820.15 -40.6867L1819.86 -39.5981L1819.57 -38.5096L1819.28 -37.4211L1818.99 -36.3326L1818.69 -35.2441L1818.4 -34.1557L1818.11 -33.0672L1817.82 -31.9788L1817.53 -30.8904L1817.24 -29.802L1816.94 -28.7137L1816.65 -27.6254L1816.36 -26.5371L1816.07 -25.4488L1815.78 -24.3606L1815.49 -23.2723L1815.19 -22.1841L1814.9 -21.0959L1814.61 -20.0077L1814.32 -18.9196L1814.03 -17.8314L1813.74 -16.7433L1813.45 -15.6552L1813.15 -14.5671L1812.86 -13.4791L1812.57 -12.3911L1812.28 -11.3031L1811.99 -10.2151L1811.7 -9.12713L1811.4 -8.03917L1811.11 -6.95127L1810.82 -5.86336L1810.53 -4.77546L1810.24 -3.68761L1809.95 -2.59977L1809.66 -1.51192L1809.36 -0.424133L1809.07 0.663654L1808.78 1.75144L1808.49 2.83917L1808.2 3.9269L1807.91 5.01462L1807.62 6.10229L1807.32 7.18996L1807.03 8.27757L1806.74 9.36524L1806.45 10.4528L1806.16 11.5404L1805.87 12.628L1805.58 13.7155L1805.28 14.8031L1804.99 15.8905L1804.7 16.978L1804.41 18.0655L1804.12 19.153L1803.83 20.2404L1803.54 21.3278L1803.24 22.4152L1802.95 23.5026L1802.66 24.5899L1802.37 25.6773L1802.08 26.7646L1801.79 27.8518L1801.5 28.9392L1801.2 30.0264L1800.91 31.1137L1800.62 32.2009L1800.33 33.2881L1800.04 34.3753L1799.75 35.4625L1799.46 36.5496L1799.17 37.6367L1798.87 38.7238L1798.58 39.8109L1798.29 40.898L1798 41.985L1797.71 43.0721L1797.42 44.1591L1797.13 45.2461L1796.84 46.3331L1796.54 47.42L1796.25 48.507L1795.96 49.594L1795.67 50.6809L1795.38 51.7678L1795.09 52.8546L1794.8 53.9415L1794.51 55.0283L1794.21 56.1152L1793.92 57.202L1793.63 58.2888L1793.34 59.3755L1793.05 60.4623L1792.76 61.5491L1792.47 62.6358L1792.18 63.7224L1791.88 64.8092L1791.59 65.8958L1791.3 66.9825L1791.01 68.0691L1790.72 69.1557L1790.43 70.2423L1790.14 71.3289L1789.85 72.4155L1789.56 73.502L1789.26 74.5886L1788.97 75.6751L1788.68 76.7616L1788.39 77.8481L1788.1 78.9346L1787.81 80.021L1787.52 81.1075L1787.23 82.1939L1786.94 83.2803L1786.64 84.3667L1786.35 85.4531L1786.06 86.5394L1785.77 87.6258L1785.48 88.7121L1785.19 89.7984L1784.9 90.8847L1784.61 91.971L1784.32 93.0573L1784.02 94.1435L1783.73 95.2298L1783.44 96.316L1783.15 97.4021L1782.86 98.4883L1782.57 99.5745L1782.28 100.661L1781.99 101.747L1781.7 102.833L1781.41 103.919L1781.11 105.005L1780.82 106.091L1780.53 107.177L1780.24 108.263L1779.95 109.349L1779.66 110.435L1779.37 111.521L1779.08 112.607L1778.79 113.693L1778.5 114.779L1778.2 115.865L1777.91 116.951L1777.62 118.037L1777.33 119.123L1777.04 120.209L1776.75 121.295L1776.46 122.381L1776.17 123.467L1775.88 124.552L1775.59 125.638L1775.29 126.724L1775 127.81L1774.71 128.896L1774.42 129.981L1774.13 131.067L1773.84 132.153L1773.55 133.239L1773.26 134.324L1772.97 135.41L1772.68 136.496L1772.39 137.581L1772.09 138.667L1771.8 139.753L1771.51 140.838L1771.22 141.924L1770.93 143.009L1770.64 144.095L1770.35 145.181L1770.06 146.266L1769.77 147.352L1769.48 148.437L1769.19 149.523L1768.9 150.608L1768.6 151.694L1768.31 152.779L1768.02 153.865L1767.73 154.95L1767.44 156.036L1767.15 157.121L1766.86 158.207L1766.57 159.292L1766.28 160.377L1765.99 161.463L1765.7 162.548L1765.4 163.633L1765.11 164.719L1764.82 165.804L1764.53 166.889L1764.24 167.975L1763.95 169.06L1763.66 170.145L1763.37 171.231L1763.08 172.316L1762.79 173.401L1762.5 174.486L1762.21 175.572L1761.92 176.657L1761.62 177.742L1761.33 178.827L1761.04 179.912L1760.75 180.998L1760.46 182.083L1760.17 183.168L1759.88 184.253L1759.59 185.338L1759.3 186.423L1759.01 187.508L1758.72 188.594L1758.43 189.679L1758.14 190.764L1757.84 191.849L1757.55 192.934L1757.26 194.019L1756.97 195.104L1756.68 196.189L1756.39 197.274L1756.1 198.359L1755.81 199.444L1755.52 200.529L1755.23 201.614L1754.94 202.699L1754.65 203.784L1754.36 204.869L1754.07 205.954L1753.77 207.039L1753.48 208.123L1753.19 209.208L1752.9 210.293L1752.61 211.378L1752.32 212.463L1752.03 213.548L1751.74 214.633L1751.45 215.718L1751.16 216.802L1750.87 217.887L1750.58 218.972L1750.29 220.057L1750 221.142L1749.71 222.226L1749.41 223.311L1749.12 224.396L1748.83 225.481L1748.54 226.565L1748.25 227.65L1747.96 228.735L1747.67 229.82L1747.38 230.904L1747.09 231.989L1746.8 233.074L1746.51 234.158L1746.22 235.243L1745.93 236.328L1745.64 237.412L1745.35 238.497L1745.05 239.582L1744.76 240.666L1744.47 241.751L1744.18 242.836L1743.89 243.92L1743.6 245.005L1743.31 246.089L1743.02 247.174L1742.73 248.258L1742.44 249.343L1742.15 250.428L1741.86 251.512L1741.57 252.597L1741.28 253.681L1740.99 254.766L1740.7 255.85L1740.4 256.935L1740.11 258.019L1739.82 259.104L1739.53 260.188L1739.24 261.273L1738.95 262.357L1738.66 263.442L1738.37 264.526L1738.08 265.611L1737.79 266.695L1737.5 267.78L1737.21 268.864L1736.92 269.948L1736.63 271.033L1736.34 272.117L1736.05 273.202L1735.76 274.286L1735.47 275.37L1735.17 276.455L1734.88 277.539L1734.59 278.624L1734.3 279.708L1734.01 280.792L1733.72 281.877L1733.43 282.961L1733.14 284.045L1732.85 285.13L1732.56 286.214L1732.27 287.298L1731.98 288.383L1731.69 289.467L1731.4 290.551L1731.11 291.635L1730.82 292.72L1730.53 293.804L1730.24 294.888L1729.94 295.973L1729.65 297.057L1729.36 298.141L1729.07 299.225L1728.78 300.31L1728.49 301.394L1728.2 302.478L1727.91 303.562L1727.62 304.647L1727.33 305.731L1727.04 306.815L1726.75 307.899L1726.46 308.983L1726.17 310.068L1725.88 311.152L1725.59 312.236L1725.3 313.32L1725.01 314.404L1724.72 315.489L1724.42 316.573L1724.13 317.657L1723.84 318.741L1723.55 319.825L1723.26 320.909L1722.97 321.994L1722.68 323.078L1722.39 324.162L1722.1 325.246L1721.81 326.33L1721.52 327.414L1721.23 328.498L1720.94 329.582L1720.65 330.667L1720.36 331.751L1720.07 332.835L1719.78 333.919L1719.49 335.003L1719.2 336.087L1718.91 337.171L1718.62 338.255L1718.32 339.339L1718.03 340.424L1717.74 341.508L1717.45 342.592L1717.16 343.676L1716.87 344.76L1716.58 345.844L1716.29 346.928L1716 348.012L1715.71 349.096L1715.42 350.18L1715.13 351.264L1714.84 352.348L1714.55 353.432L1714.26 354.516L1713.97 355.6L1713.68 356.684L1713.39 357.768L1713.1 358.852L1712.81 359.936L1712.52 361.02L1712.22 362.104L1711.93 363.189L1711.64 364.273L1711.35 365.357L1711.06 366.441L1710.77 367.525L1710.48 368.609L1710.19 369.693L1709.9 370.777L1709.61 371.861L1709.32 372.945L1709.03 374.029L1708.74 375.113L1708.45 376.197L1708.16 377.281L1707.87 378.365L1707.58 379.449L1707.29 380.533L1707 381.617L1706.71 382.701L1706.42 383.785L1706.13 384.869L1705.83 385.953L1705.54 387.037L1705.25 388.12L1704.96 389.204L1704.67 390.288L1704.38 391.372L1704.09 392.456L1703.8 393.54L1703.51 394.624L1703.22 395.708L1702.93 396.792L1702.64 397.876L1702.35 398.96L1702.06 400.044L1701.77 401.128L1701.48 402.212L1701.19 403.296L1700.9 404.38L1700.61 405.464L1700.32 406.548L1700.03 407.632L1699.74 408.716L1699.44 409.8L1699.15 410.884L1698.92 411.768L1624.11 455.123L1070.89 775.741L1068.86 775.197L1066.63 774.6L1064.4 774.002L1062.17 773.405L1059.94 772.807L1057.71 772.21L1055.48 771.612L1053.25 771.015L1051.02 770.417L1048.79 769.82L1046.56 769.222L1044.33 768.625L1042.1 768.027L1039.87 767.43L1037.64 766.832L1035.41 766.235L1033.18 765.637L1030.95 765.04L1028.72 764.443L1026.49 763.845L1024.26 763.248L1022.03 762.65L1019.8 762.053L1017.57 761.456L1015.34 760.858L1013.11 760.261L1010.88 759.664L1008.65 759.066L1006.42 758.469L1004.2 757.872L1001.97 757.274L999.737 756.677L997.507 756.08L995.278 755.482L993.049 754.885L990.82 754.288L988.591 753.69L986.362 753.093L984.133 752.496L981.904 751.899L979.675 751.301L977.446 750.704L975.217 750.107L972.988 749.51L970.759 748.912L968.53 748.315L966.301 747.718L964.072 747.121L961.843 746.523L959.615 745.926L957.386 745.329L955.157 744.732L952.928 744.135L950.7 743.537L948.471 742.94L946.242 742.343L944.014 741.746L941.785 741.149L939.557 740.552L937.328 739.954L935.099 739.357L932.871 738.76L930.642 738.163L928.414 737.566L926.186 736.969L923.957 736.372L921.729 735.775L919.5 735.178L917.272 734.581L915.044 733.983L912.815 733.386L910.587 732.789L908.359 732.192L906.131 731.595L903.902 730.998L901.674 730.401L899.446 729.804L897.218 729.207L894.99 728.61L892.762 728.013L890.534 727.416L888.306 726.819L886.078 726.222L883.85 725.625L881.622 725.028L879.394 724.431L877.166 723.834L874.938 723.237L872.71 722.64L870.482 722.043L868.254 721.446L866.027 720.849L863.799 720.252L861.571 719.655L859.343 719.059L857.115 718.462L854.888 717.865L852.66 717.268L850.432 716.671L848.205 716.074L845.977 715.477L843.749 714.88L841.522 714.283L839.294 713.686L837.067 713.09L834.839 712.493L832.612 711.896L830.384 711.299L828.157 710.702L825.93 710.105L823.702 709.509L821.475 708.912L819.247 708.315L817.02 707.718L814.793 707.121L812.565 706.524L810.338 705.928L808.111 705.331L805.884 704.734L803.656 704.137L801.429 703.541L799.202 702.944L796.975 702.347L794.748 701.75L792.521 701.153L790.294 700.557L788.066 699.96L785.839 699.363L783.612 698.767L781.385 698.17L779.158 697.573L776.931 696.976L774.704 696.38L772.478 695.783L770.251 695.186L768.024 694.59L765.797 693.993L763.57 693.396L761.343 692.799L759.116 692.203L756.89 691.606L754.663 691.009L752.436 690.413L750.209 689.816L747.983 689.22L745.756 688.623L743.529 688.026L741.303 687.43L739.076 686.833L736.849 686.236L734.623 685.64L732.396 685.043L730.169 684.447L727.943 683.85L725.716 683.253L723.49 682.657L721.263 682.06L719.037 681.464L716.811 680.867L714.584 680.27L712.358 679.674L710.131 679.077L707.905 678.481L705.679 677.884L703.452 677.288L701.226 676.691L699 676.095L696.773 675.498L694.547 674.902L692.321 674.305L690.095 673.709L687.868 673.112L685.642 672.515L683.416 671.919L681.19 671.322L678.964 670.726L676.738 670.129L674.512 669.533L672.285 668.937L670.059 668.34L667.833 667.744L665.607 667.147L663.381 666.551L661.155 665.954L658.929 665.358L656.703 664.761L654.477 664.165L652.252 663.568L650.026 662.972L647.8 662.376L645.574 661.779L643.348 661.183L641.122 660.586L638.896 659.99L636.67 659.394L634.445 658.797L632.219 658.201L629.993 657.604L627.767 657.008L625.542 656.412L623.316 655.815L621.09 655.219L618.865 654.622L616.639 654.026L614.413 653.43L612.188 652.833L609.962 652.237L607.736 651.641L605.511 651.044L603.285 650.448L601.06 649.852L598.834 649.255L596.609 648.659L594.383 648.063L592.158 647.466L589.932 646.87L587.707 646.274L585.481 645.677L583.256 645.081L581.031 644.485L578.805 643.889L576.58 643.292L574.354 642.696L572.129 642.1L569.904 641.503L567.678 640.907L565.453 640.311L563.228 639.715L561.003 639.118L558.777 638.522L556.552 637.926L554.327 637.33L552.102 636.733L549.876 636.137L547.651 635.541L545.426 634.945L543.201 634.348L540.976 633.752L538.751 633.156L536.526 632.56L534.3 631.964L532.075 631.367L529.85 630.771L527.625 630.175L525.4 629.579L523.175 628.983L520.95 628.386L518.725 627.79L516.5 627.194L514.275 626.598L512.05 626.002L509.825 625.405L507.6 624.809L505.375 624.213L503.151 623.617L500.926 623.021L498.701 622.425L496.476 621.829L494.251 621.232L492.026 620.636L489.801 620.04L487.577 619.444L485.352 618.848L483.127 618.252L480.902 617.656L478.678 617.059L476.453 616.463L474.228 615.867L472.003 615.271L469.779 614.675L467.554 614.079L465.329 613.483L463.105 612.887L460.88 612.291L458.655 611.695L456.431 611.098L454.206 610.502L451.982 609.906L449.757 609.31L447.532 608.714L445.308 608.118L443.083 607.522L440.859 606.926L438.634 606.33L436.41 605.734L434.185 605.138L431.961 604.542L429.736 603.946L427.512 603.35L425.287 602.754L423.063 602.158L420.838 601.562L418.614 600.966L416.39 600.369L414.165 599.773L411.941 599.177L409.716 598.581L407.492 597.985L405.268 597.389L403.043 596.793L400.819 596.197L398.595 595.601L396.37 595.005L394.146 594.409L391.922 593.813L389.698 593.217L387.473 592.621L385.249 592.025L383.025 591.429L380.801 590.833L378.576 590.237L376.352 589.641L374.128 589.045L371.904 588.45L369.68 587.854L367.456 587.258L365.231 586.662L363.007 586.066L360.783 585.47L358.559 584.874L356.335 584.278L354.111 583.682L351.887 583.086L349.663 582.49L347.438 581.894L345.214 581.298L342.99 580.702L340.766 580.106L338.542 579.51L336.318 578.914L334.094 578.318L331.87 577.723L329.646 577.127L327.422 576.531L325.198 575.935L322.974 575.339L320.75 574.743L318.526 574.147L316.302 573.551L314.078 572.955L311.855 572.359L309.631 571.763L307.407 571.168L305.183 570.572L302.959 569.976L300.735 569.38L298.511 568.784L296.287 568.188L294.063 567.592L291.84 566.996L289.616 566.401L287.392 565.805L285.168 565.209L282.944 564.613L280.721 564.017L278.497 563.421L276.273 562.825L274.049 562.229L271.825 561.634L269.602 561.038L267.378 560.442L265.154 559.846L262.93 559.25L260.707 558.654L258.483 558.059L256.259 557.463L254.036 556.867L251.812 556.271L249.588 555.675L247.364 555.079L245.141 554.483L242.917 553.888L240.693 553.292L238.47 552.696L236.246 552.1L234.022 551.504L231.799 550.908L229.575 550.313L227.352 549.717L225.128 549.121L222.904 548.525L220.681 547.929L218.457 547.334L216.234 546.738L214.01 546.142L211.787 545.546L209.563 544.95L207.339 544.355L205.116 543.759L202.892 543.163L200.669 542.567L198.445 541.971L196.222 541.376L193.998 540.78L191.775 540.184L189.551 539.588L187.328 538.992L185.104 538.397L182.881 537.801L180.657 537.205L178.434 536.609L176.21 536.014L173.987 535.418L171.763 534.822L169.54 534.226L167.316 533.63L165.093 533.035L162.87 532.439L160.646 531.843L158.423 531.247L156.199 530.652L153.976 530.056L151.752 529.46L149.529 528.864L147.306 528.269L145.082 527.673L142.859 527.077L140.636 526.481L138.412 525.886L136.189 525.29L133.965 524.694L131.742 524.098L129.519 523.503L127.295 522.907L125.072 522.311L122.849 521.715L120.625 521.12L118.402 520.524L116.179 519.928L113.955 519.332L111.732 518.737L109.509 518.141L107.285 517.545L105.062 516.949L102.839 516.354L100.615 515.758L98.3921 515.162L96.1688 514.567L93.9455 513.971L91.7222 513.375L89.4989 512.779L87.2756 512.184L85.0524 511.588L82.8291 510.992L80.6058 510.396L78.3826 509.801L76.1593 509.205L73.9361 508.609L71.7128 508.014L69.4896 507.418L67.2663 506.822L65.0431 506.226L62.8198 505.631L60.5966 505.035L58.3733 504.439L56.1501 503.844L53.9269 503.248L51.7037 502.652L49.4804 502.056L47.2572 501.461L45.034 500.865L42.8108 500.269L40.5876 499.674L38.3644 499.078L36.1412 498.482L33.918 497.886L31.6948 497.291L29.4716 496.695L27.2483 496.099L25.0252 495.504L22.802 494.908L20.5788 494.312L18.3556 493.717L16.1324 493.121L13.9093 492.525L11.6861 491.929L9.46285 491.334L7.2397 490.738L5.01654 490.142L2.79334 489.547L0.570185 488.951L-1.65302 488.355L-3.87617 487.76L-6.09933 487.164L-8.32253 486.568L-10.5457 485.972L-12.7688 485.377L-14.992 484.781L-17.2151 484.185L-19.4383 483.59L-21.6615 482.994L-23.8846 482.398L-26.1078 481.803L-28.3309 481.207L-30.5541 480.611L-32.7772 480.016L-35.0004 479.42L-37.2235 478.824L-39.4467 478.228L-41.6698 477.633L-43.893 477.037L-46.1162 476.441L-48.3393 475.846L-50.5625 475.25L-52.7856 474.654L-55.0088 474.059L-57.2319 473.463L-59.4551 472.867L-61.6782 472.272L-63.9014 471.676L-66.1245 471.08L-68.1597 470.535L-618.721 -394.627L-546.307 -440.555L-402.121 -214.159L-402.017 -213.995L-401.829 -213.945L-192.618 -157.887L-192.135 -157.757L-192.006 -158.24L1.18956 -879.254L1.27885 -879.587L0.998985 -879.789C-38.1257 -907.994 -58.5134 -959.027 -45.2241 -1008.62C-27.8186 -1073.58 37.8968 -1111.67 102.638 -1094.32C167.379 -1076.97 205.248 -1011.13 187.843 -946.174C174.554 -896.577 131.381 -862.575 83.3951 -857.711L83.0518 -857.676L82.9625 -857.343L-110.233 -136.329L-110.362 -135.846L-109.879 -135.717L1.22747 -105.946L1.71044 -105.816L1.83985 -106.299L129.895 -584.208L129.984 -584.538L129.708 -584.741C91.7752 -612.62 73.7341 -663.016 86.7099 -711.442C104.115 -776.4 169.831 -814.484 234.572 -797.136C299.313 -779.789 337.182 -713.95 319.777 -648.992C306.17 -598.211 263 -564.211 212.656 -559.978L212.306 -559.948L212.215 -559.609L84.7949 -84.0717L84.6655 -83.5887L85.1485 -83.4593L200.983 -52.4215L201.466 -52.2921L201.595 -52.7751L268.006 -300.624L268.093 -300.949L267.825 -301.152C229.018 -330.537 210.982 -380.938 223.957 -429.36C241.362 -494.318 307.078 -532.402 371.818 -515.054C436.559 -497.707 474.429 -431.868 457.024 -366.91C443.418 -316.135 399.07 -282.445 349.898 -277.895L349.552 -277.863L349.461 -277.527L283.368 -30.8641L283.239 -30.3811L283.722 -30.2517L1167.85 206.649L1168.05 206.703L1168.23 206.598L1402.19 71.0085L1402.62 70.7586L1402.37 70.3266L876.053 -844.75ZM1581.4 380.859L1581.83 380.606L1581.58 380.173L1535.46 301.721L1535.21 301.293L1534.78 301.542L1115.03 544.804L-131.765 210.727L-133.003 210.395L-132.316 211.478L-14.7428 396.775L-14.6383 396.94L-14.45 396.99L1057.61 684.248L1057.81 684.302L1057.99 684.197L1581.4 380.859ZM1103.25 452.442L1103.45 452.496L1103.63 452.392L1492.07 227.278L1492.5 227.028L1492.25 226.596L1445.58 145.456L1445.33 145.021L1444.9 145.273L1181.12 298.142L-332.8 -107.512L-334.036 -107.843L-333.352 -106.762L-200.769 102.893L-200.665 103.058L-200.476 103.109L1103.25 452.442ZM359.914 -465.897C323.009 -475.785 284.057 -454.22 273.816 -416.001C263.896 -378.979 285.333 -339.949 323.431 -329.741C360.335 -319.852 399.288 -341.418 409.528 -379.637C419.448 -416.659 398.011 -455.689 359.914 -465.897ZM221.485 -748.295C184.581 -758.184 145.628 -736.618 135.387 -698.399C125.466 -661.372 148.092 -622.029 185.002 -612.139C221.906 -602.251 260.859 -623.816 271.099 -662.035C281.019 -699.057 259.582 -738.087 221.485 -748.295ZM89.8688 -1046.66C52.9645 -1056.55 14.0119 -1034.99 3.77117 -996.767C-6.46953 -958.548 16.4815 -920.395 53.3858 -910.507C90.29 -900.618 129.243 -922.184 139.483 -960.403C149.403 -997.425 127.966 -1036.46 89.8688 -1046.66ZM1231.58 -853.864C1194.67 -863.752 1155.72 -842.186 1145.48 -803.967C1135.56 -766.94 1158.19 -727.598 1195.1 -717.708C1232 -707.819 1270.95 -729.385 1281.19 -767.603C1291.11 -804.625 1269.68 -843.655 1231.58 -853.864ZM1534.42 -702.811C1497.52 -712.7 1458.56 -691.134 1448.32 -652.915C1438.08 -614.696 1461.03 -576.544 1497.94 -566.655C1534.84 -556.767 1573.79 -578.332 1584.03 -616.551C1593.95 -653.573 1572.52 -692.603 1534.42 -702.811ZM838.697 -895.821C875.601 -885.932 914.553 -907.498 924.794 -945.717C935.033 -983.93 913.271 -1021.77 875.179 -1031.98C838.275 -1041.87 799.323 -1020.3 789.082 -982.08C779.162 -945.059 800.599 -906.029 838.697 -895.821Z" stroke="#4CA9FF"/>
<path d="M-1197.96 -1114.88C-1161.06 -1105 -1122.11 -1126.57 -1111.87 -1164.78C-1101.95 -1201.8 -1123.39 -1240.83 -1161.49 -1251.04C-1198.39 -1260.93 -1237.35 -1239.37 -1247.59 -1201.15C-1257.82 -1162.95 -1236.4 -1123.91 -1197.96 -1114.88ZM-1197.96 -1114.88C-1197.97 -1114.88 -1197.97 -1114.89 -1197.97 -1114.89L-1197.84 -1115.37L-1197.96 -1114.88C-1197.96 -1114.88 -1197.96 -1114.88 -1197.96 -1114.88ZM-258.159 420.902L-258.185 420.895L-258.274 420.872L-258.364 420.848L-258.455 420.823L-258.548 420.798L-258.642 420.773L-258.737 420.747L-258.834 420.721L-258.933 420.695L-259.032 420.668L-259.133 420.641L-259.236 420.614L-259.339 420.586L-259.444 420.558L-259.551 420.53L-259.658 420.501L-259.767 420.471L-259.878 420.442L-259.989 420.412L-260.102 420.382L-260.216 420.351L-260.332 420.32L-260.449 420.289L-260.567 420.257L-260.686 420.225L-260.807 420.193L-260.928 420.16L-261.052 420.127L-261.176 420.094L-261.302 420.06L-261.428 420.026L-261.556 419.992L-261.686 419.957L-261.816 419.922L-261.948 419.887L-262.081 419.852L-262.215 419.816L-262.35 419.779L-262.487 419.743L-262.625 419.706L-262.763 419.669L-262.903 419.631L-263.045 419.593L-263.187 419.555L-263.33 419.517L-263.475 419.478L-263.621 419.439L-263.768 419.4L-263.916 419.36L-264.065 419.32L-264.215 419.28L-264.366 419.239L-264.519 419.198L-264.673 419.157L-264.827 419.116L-264.983 419.074L-265.14 419.032L-265.298 418.99L-265.457 418.947L-265.617 418.904L-265.778 418.861L-265.94 418.818L-266.103 418.774L-266.267 418.73L-266.432 418.686L-266.599 418.641L-266.766 418.596L-266.934 418.551L-267.104 418.506L-267.274 418.46L-267.445 418.414L-267.617 418.368L-267.791 418.322L-267.965 418.275L-268.14 418.228L-268.316 418.181L-268.493 418.133L-268.671 418.086L-268.85 418.038L-269.03 417.989L-269.211 417.941L-269.393 417.892L-269.576 417.843L-269.76 417.794L-269.944 417.745L-270.13 417.695L-270.316 417.645L-270.503 417.595L-270.691 417.544L-270.88 417.494L-271.07 417.443L-271.261 417.392L-271.453 417.34L-271.645 417.289L-271.839 417.237L-272.033 417.185L-272.228 417.133L-272.423 417.08L-272.62 417.028L-272.818 416.975L-273.016 416.921L-273.215 416.868L-273.415 416.815L-273.616 416.761L-273.817 416.707L-274.02 416.653L-274.223 416.598L-274.426 416.544L-274.631 416.489L-274.836 416.434L-275.042 416.378L-275.249 416.323L-275.457 416.267L-275.665 416.212L-275.874 416.156L-276.084 416.099L-276.295 416.043L-276.506 415.986L-276.718 415.93L-276.93 415.873L-277.144 415.815L-277.358 415.758L-277.572 415.701L-277.788 415.643L-278.004 415.585L-278.22 415.527L-278.438 415.469L-278.656 415.41L-278.874 415.352L-279.093 415.293L-279.313 415.234L-279.534 415.175L-279.755 415.116L-279.977 415.056L-280.199 414.997L-280.422 414.937L-280.646 414.877L-280.87 414.817L-281.095 414.757L-281.32 414.696L-281.546 414.636L-281.772 414.575L-281.999 414.514L-282.227 414.453L-282.455 414.392L-282.684 414.331L-282.913 414.27L-283.143 414.208L-283.373 414.146L-283.604 414.085L-283.835 414.023L-284.067 413.96L-284.299 413.898L-284.532 413.836L-284.765 413.773L-284.999 413.711L-285.233 413.648L-285.468 413.585L-285.703 413.522L-285.938 413.459L-286.174 413.396L-286.411 413.332L-286.648 413.269L-286.885 413.205L-287.123 413.141L-287.361 413.078L-287.6 413.014L-287.839 412.95L-288.079 412.885L-288.318 412.821L-288.559 412.757L-288.799 412.692L-289.04 412.628L-289.282 412.563L-289.524 412.498L-289.766 412.433L-290.008 412.368L-290.251 412.303L-290.494 412.238L-290.738 412.173L-290.981 412.108L-291.226 412.042L-291.47 411.977L-291.715 411.911L-291.96 411.845L-292.206 411.78L-292.451 411.714L-292.697 411.648L-292.943 411.582L-293.19 411.516L-293.437 411.45L-293.684 411.384L-293.931 411.317L-294.179 411.251L-294.427 411.184L-294.675 411.118L-294.923 411.051L-295.172 410.985L-295.42 410.918L-295.67 410.851L-295.919 410.785L-296.168 410.718L-296.418 410.651L-296.667 410.584L-296.917 410.517L-297.168 410.45L-297.418 410.383L-297.668 410.316L-297.919 410.249L-298.17 410.181L-298.421 410.114L-298.672 410.047L-298.923 409.98L-299.175 409.912L-299.426 409.845L-299.678 409.777L-299.93 409.71L-300.181 409.643L-300.433 409.575L-300.686 409.507L-300.938 409.44L-301.19 409.372L-301.442 409.305L-301.695 409.237L-301.947 409.169L-302.2 409.102L-302.452 409.034L-302.705 408.966L-302.957 408.899L-303.21 408.831L-303.463 408.763L-303.716 408.696L-303.968 408.628L-304.221 408.56L-304.474 408.492L-304.727 408.425L-304.98 408.357L-305.232 408.289L-305.485 408.221L-305.738 408.154L-305.99 408.086L-306.243 408.018L-306.496 407.951L-306.748 407.883L-307.001 407.815L-307.253 407.748L-307.506 407.68L-307.758 407.612L-308.01 407.545L-308.262 407.477L-308.514 407.41L-308.766 407.342L-309.018 407.275L-309.27 407.207L-309.522 407.14L-309.773 407.072L-310.025 407.005L-310.276 406.938L-310.527 406.87L-310.778 406.803L-311.029 406.736L-311.279 406.669L-311.53 406.602L-311.78 406.535L-312.03 406.468L-312.28 406.401L-312.53 406.334L-312.78 406.267L-313.029 406.2L-313.278 406.133L-313.527 406.066L-313.776 406L-314.025 405.933L-314.273 405.867L-314.521 405.8L-314.769 405.734L-315.017 405.667L-315.264 405.601L-315.511 405.535L-315.758 405.469L-316.005 405.403L-316.251 405.337L-316.497 405.271L-316.742 405.205L-316.988 405.139L-317.233 405.074L-317.478 405.008L-317.722 404.942L-317.966 404.877L-318.21 404.812L-318.454 404.746L-318.697 404.681L-318.94 404.616L-319.182 404.551L-319.424 404.486L-319.666 404.422L-319.907 404.357L-320.149 404.292L-320.389 404.228L-320.629 404.163L-320.869 404.099L-321.109 404.035L-321.348 403.971L-321.587 403.907L-321.825 403.843L-322.063 403.779L-322.3 403.716L-322.537 403.652L-322.773 403.589L-323.009 403.526L-323.245 403.463L-323.48 403.4L-323.715 403.337L-323.949 403.274L-324.183 403.211L-324.416 403.149L-324.649 403.086L-324.881 403.024L-325.113 402.962L-325.344 402.9L-325.575 402.838L-325.805 402.777L-326.035 402.715L-326.264 402.654L-326.493 402.592L-326.721 402.531L-326.949 402.47L-327.176 402.409L-327.402 402.349L-327.628 402.288L-327.853 402.228L-328.078 402.168L-328.302 402.108L-328.526 402.048L-328.749 401.988L-328.971 401.928L-329.193 401.869L-329.414 401.81L-329.635 401.751L-329.854 401.692L-330.074 401.633L-330.292 401.574L-330.51 401.516L-330.728 401.458L-330.944 401.4L-331.16 401.342L-331.376 401.284L-331.59 401.227L-331.804 401.169L-332.018 401.112L-332.23 401.055L-332.442 400.998L-332.653 400.942L-332.864 400.885L-333.074 400.829L-333.283 400.773L-333.491 400.717L-333.699 400.662L-333.906 400.606L-334.112 400.551L-334.317 400.496L-334.521 400.441L-334.725 400.386L-334.928 400.332L-335.131 400.278L-335.332 400.224L-335.533 400.17L-335.733 400.117L-335.932 400.063L-336.13 400.01L-336.328 399.957L-336.524 399.904L-336.72 399.852L-336.915 399.8L-337.109 399.748L-337.303 399.696L-337.495 399.644L-337.687 399.593L-337.878 399.542L-338.068 399.491L-338.257 399.44L-338.445 399.39L-338.632 399.34L-338.818 399.29L-339.004 399.24L-339.188 399.191L-339.372 399.141L-339.555 399.092L-339.737 399.044L-339.917 398.995L-340.097 398.947L-340.276 398.899L-340.455 398.851L-340.632 398.804L-340.808 398.757L-340.983 398.71L-341.157 398.663L-341.33 398.617L-341.503 398.571L-341.674 398.525L-341.844 398.479L-342.014 398.434L-342.182 398.389L-342.349 398.344L-342.515 398.299L-342.681 398.255L-342.845 398.211L-343.008 398.167L-343.17 398.124L-343.331 398.081L-343.491 398.038L-343.65 397.995L-343.808 397.953L-343.965 397.911L-344.121 397.869L-344.275 397.828L-344.429 397.786L-344.582 397.746L-344.733 397.705L-344.883 397.665L-345.032 397.625L-345.18 397.585L-345.327 397.546L-345.473 397.507L-345.618 397.468L-345.761 397.429L-345.903 397.391L-346.045 397.354L-346.185 397.316L-346.323 397.279L-346.461 397.242L-346.598 397.205L-346.733 397.169L-346.867 397.133L-347 397.098L-347.132 397.062L-347.262 397.027L-347.391 396.993L-347.52 396.958L-347.646 396.924L-347.772 396.891L-347.896 396.857L-348.019 396.824L-348.141 396.792L-348.262 396.759L-348.381 396.727L-348.499 396.696L-348.616 396.664L-348.732 396.634L-348.846 396.603L-348.959 396.573L-349.07 396.543L-349.181 396.513L-349.29 396.484L-349.397 396.455L-349.504 396.427L-349.609 396.399L-349.712 396.371L-349.815 396.343L-349.916 396.316L-350.015 396.29L-350.114 396.263L-350.21 396.237L-350.306 396.212L-350.4 396.186L-350.493 396.162L-350.584 396.137L-350.674 396.113L-350.763 396.089L-350.85 396.066L-350.936 396.043L-351.02 396.02L-351.103 395.998L-351.185 395.976L-351.265 395.955L-351.343 395.934L-351.42 395.913L-351.496 395.893L-351.57 395.873L-351.643 395.853L-351.714 395.834L-351.784 395.816L-351.852 395.797L-351.919 395.779L-351.984 395.762L-352.048 395.745L-352.11 395.728L-352.171 395.712L-352.23 395.696L-352.288 395.681L-352.344 395.666L-352.435 395.641C-682.115 307.304 -1010.62 219.282 -1339.43 132.446C-1411.31 20.4035 -1482.5 -92.0352 -1553.83 -204.702C-1587.96 -258.605 -1622.12 -312.56 -1656.41 -366.548L-1656.23 -367.219L-1655.99 -368.101L-1655.75 -368.984L-1655.52 -369.866L-1655.28 -370.749L-1655.04 -371.632L-1654.81 -372.514L-1654.57 -373.397L-1654.34 -374.28L-1654.1 -375.162L-1653.86 -376.045L-1653.63 -376.928L-1653.39 -377.811L-1653.15 -378.693L-1652.92 -379.576L-1652.68 -380.459L-1652.44 -381.342L-1652.21 -382.225L-1651.97 -383.108L-1651.73 -383.991L-1651.5 -384.874L-1651.26 -385.757L-1651.02 -386.64L-1650.79 -387.523L-1650.55 -388.406L-1650.31 -389.289L-1650.08 -390.172L-1649.84 -391.056L-1649.6 -391.939L-1649.37 -392.822L-1649.13 -393.705L-1648.89 -394.589L-1648.66 -395.472L-1648.42 -396.355L-1648.18 -397.239L-1647.95 -398.122L-1647.71 -399.006L-1647.47 -399.889L-1647.24 -400.772L-1647 -401.656L-1646.76 -402.539L-1646.53 -403.423L-1646.29 -404.307L-1646.05 -405.19L-1645.82 -406.074L-1645.58 -406.957L-1645.34 -407.841L-1645.11 -408.725L-1644.87 -409.608L-1644.63 -410.492L-1644.4 -411.376L-1644.16 -412.26L-1643.92 -413.144L-1643.69 -414.027L-1643.45 -414.911L-1643.21 -415.795L-1642.97 -416.679L-1642.74 -417.563L-1642.5 -418.447L-1642.26 -419.331L-1642.03 -420.215L-1641.79 -421.099L-1641.55 -421.983L-1641.32 -422.867L-1641.08 -423.751L-1640.84 -424.635L-1640.61 -425.519L-1640.37 -426.404L-1640.13 -427.288L-1639.9 -428.172L-1639.66 -429.056L-1639.42 -429.941L-1639.18 -430.825L-1638.95 -431.709L-1638.71 -432.593L-1638.47 -433.478L-1638.24 -434.362L-1638 -435.247L-1637.76 -436.131L-1637.53 -437.016L-1637.29 -437.9L-1637.05 -438.784L-1636.81 -439.669L-1636.58 -440.554L-1636.34 -441.438L-1636.1 -442.323L-1635.87 -443.207L-1635.63 -444.092L-1635.39 -444.977L-1635.16 -445.861L-1634.92 -446.746L-1634.68 -447.631L-1634.44 -448.515L-1634.21 -449.4L-1633.97 -450.285L-1633.73 -451.17L-1633.5 -452.055L-1633.26 -452.939L-1633.02 -453.824L-1632.78 -454.709L-1632.55 -455.594L-1632.31 -456.479L-1632.07 -457.364L-1631.84 -458.249L-1631.6 -459.134L-1631.36 -460.019L-1631.12 -460.904L-1630.89 -461.789L-1630.65 -462.674L-1630.41 -463.559L-1630.18 -464.445L-1629.94 -465.33L-1629.7 -466.215L-1629.46 -467.1L-1629.23 -467.985L-1628.99 -468.871L-1628.75 -469.756L-1628.52 -470.641L-1628.28 -471.526L-1628.04 -472.412L-1627.8 -473.297L-1627.57 -474.182L-1627.33 -475.068L-1627.09 -475.953L-1626.85 -476.839L-1626.62 -477.724L-1626.38 -478.61L-1626.14 -479.495L-1625.91 -480.381L-1625.67 -481.266L-1625.43 -482.152L-1625.19 -483.037L-1624.96 -483.923L-1624.72 -484.808L-1624.48 -485.694L-1624.24 -486.58L-1624.01 -487.465L-1623.77 -488.351L-1623.53 -489.237L-1623.3 -490.123L-1623.06 -491.008L-1622.82 -491.894L-1622.58 -492.78L-1622.35 -493.666L-1622.11 -494.552L-1621.87 -495.437L-1621.63 -496.323L-1621.4 -497.209L-1621.16 -498.095L-1620.92 -498.981L-1620.68 -499.867L-1620.45 -500.753L-1620.21 -501.639L-1619.97 -502.525L-1619.73 -503.411L-1619.5 -504.297L-1619.26 -505.183L-1619.02 -506.069L-1618.79 -506.955L-1618.55 -507.841L-1618.31 -508.727L-1618.07 -509.614L-1617.84 -510.5L-1617.6 -511.386L-1617.36 -512.272L-1617.12 -513.158L-1616.89 -514.045L-1616.65 -514.931L-1616.41 -515.817L-1616.17 -516.703L-1615.94 -517.59L-1615.7 -518.476L-1615.46 -519.362L-1615.22 -520.249L-1614.99 -521.135L-1614.75 -522.022L-1614.51 -522.908L-1614.27 -523.794L-1614.04 -524.681L-1613.8 -525.567L-1613.56 -526.454L-1613.32 -527.34L-1613.09 -528.227L-1612.85 -529.114L-1612.61 -530L-1612.37 -530.887L-1612.14 -531.773L-1611.9 -532.66L-1611.66 -533.546L-1611.42 -534.433L-1611.18 -535.32L-1610.95 -536.206L-1610.71 -537.093L-1610.47 -537.98L-1610.23 -538.867L-1610 -539.753L-1609.76 -540.64L-1609.52 -541.527L-1609.28 -542.414L-1609.05 -543.301L-1608.81 -544.187L-1608.57 -545.074L-1608.33 -545.961L-1608.1 -546.848L-1607.86 -547.735L-1607.62 -548.622L-1607.38 -549.509L-1607.15 -550.396L-1606.91 -551.283L-1606.67 -552.17L-1606.43 -553.057L-1606.19 -553.944L-1605.96 -554.831L-1605.72 -555.718L-1605.48 -556.605L-1605.24 -557.492L-1605.01 -558.379L-1604.77 -559.266L-1604.53 -560.153L-1604.29 -561.04L-1604.06 -561.928L-1603.82 -562.815L-1603.58 -563.702L-1603.34 -564.589L-1603.1 -565.476L-1602.87 -566.364L-1602.63 -567.251L-1602.39 -568.138L-1602.15 -569.025L-1601.92 -569.913L-1601.68 -570.8L-1601.44 -571.687L-1601.2 -572.575L-1600.96 -573.462L-1600.73 -574.349L-1600.49 -575.237L-1600.25 -576.124L-1600.01 -577.012L-1599.78 -577.899L-1599.54 -578.786L-1599.3 -579.674L-1599.06 -580.561L-1598.82 -581.449L-1598.59 -582.336L-1598.35 -583.224L-1598.11 -584.111L-1597.87 -584.999L-1597.64 -585.886L-1597.4 -586.774L-1597.16 -587.662L-1596.92 -588.549L-1596.68 -589.437L-1596.45 -590.324L-1596.21 -591.212L-1595.97 -592.1L-1595.73 -592.987L-1595.5 -593.875L-1595.26 -594.763L-1595.02 -595.65L-1594.78 -596.538L-1594.54 -597.426L-1594.31 -598.314L-1594.07 -599.201L-1593.83 -600.089L-1593.59 -600.977L-1593.35 -601.865L-1593.12 -602.753L-1592.88 -603.64L-1592.64 -604.528L-1592.4 -605.416L-1592.16 -606.304L-1591.93 -607.192L-1591.69 -608.08L-1591.45 -608.968L-1591.21 -609.856L-1590.98 -610.743L-1590.74 -611.631L-1590.5 -612.519L-1590.26 -613.407L-1590.02 -614.295L-1589.79 -615.183L-1589.55 -616.071L-1589.31 -616.959L-1589.07 -617.847L-1588.83 -618.735L-1588.6 -619.623L-1588.36 -620.511L-1588.12 -621.4L-1587.88 -622.288L-1587.64 -623.176L-1587.41 -624.064L-1587.17 -624.952L-1586.93 -625.84L-1586.69 -626.728L-1586.45 -627.616L-1586.22 -628.505L-1585.98 -629.393L-1585.74 -630.281L-1585.5 -631.169L-1585.26 -632.057L-1585.03 -632.946L-1584.79 -633.834L-1584.55 -634.722L-1584.31 -635.61L-1584.07 -636.499L-1583.84 -637.387L-1583.6 -638.275L-1583.36 -639.163L-1583.12 -640.052L-1582.88 -640.94L-1582.65 -641.828L-1582.41 -642.717L-1582.17 -643.605L-1581.93 -644.493L-1581.69 -645.382L-1581.46 -646.27L-1581.22 -647.159L-1580.98 -648.047L-1580.74 -648.935L-1580.5 -649.824L-1580.27 -650.712L-1580.03 -651.601L-1579.79 -652.489L-1579.55 -653.378L-1579.31 -654.266L-1579.08 -655.155L-1578.84 -656.043L-1578.6 -656.932L-1578.36 -657.82L-1578.12 -658.709L-1577.88 -659.597L-1577.65 -660.486L-1577.41 -661.374L-1577.17 -662.263L-1576.93 -663.151L-1576.69 -664.04L-1576.46 -664.929L-1576.22 -665.817L-1575.98 -666.706L-1575.74 -667.594L-1575.5 -668.483L-1575.27 -669.372L-1575.03 -670.26L-1574.79 -671.149L-1574.55 -672.038L-1574.31 -672.926L-1574.08 -673.815L-1573.84 -674.704L-1573.6 -675.592L-1573.36 -676.481L-1573.12 -677.37L-1572.88 -678.259L-1572.65 -679.147L-1572.41 -680.036L-1572.17 -680.925L-1571.93 -681.814L-1571.69 -682.702L-1571.46 -683.591L-1571.22 -684.48L-1570.98 -685.369L-1570.74 -686.258L-1570.5 -687.146L-1570.26 -688.035L-1570.03 -688.924L-1569.79 -689.813L-1569.55 -690.702L-1569.31 -691.59L-1569.07 -692.479L-1568.84 -693.368L-1568.6 -694.257L-1568.36 -695.146L-1568.12 -696.035L-1567.88 -696.924L-1567.65 -697.813L-1567.41 -698.702L-1567.17 -699.59L-1566.93 -700.479L-1566.69 -701.368L-1566.45 -702.257L-1566.22 -703.146L-1565.98 -704.035L-1565.74 -704.924L-1565.5 -705.813L-1565.26 -706.702L-1565.02 -707.591L-1564.79 -708.48L-1564.55 -709.369L-1564.31 -710.258L-1564.07 -711.147L-1563.83 -712.036L-1563.6 -712.925L-1563.36 -713.814L-1563.12 -714.703L-1562.88 -715.592L-1562.64 -716.481L-1562.4 -717.37L-1562.17 -718.259L-1561.93 -719.148L-1561.69 -720.037L-1561.45 -720.926L-1561.21 -721.816L-1560.98 -722.705L-1560.74 -723.594L-1560.5 -724.483L-1560.26 -725.372L-1560.02 -726.261L-1559.78 -727.15L-1559.55 -728.039L-1559.31 -728.928L-1559.07 -729.817L-1558.83 -730.707L-1558.59 -731.596L-1558.35 -732.485L-1558.12 -733.374L-1557.88 -734.263L-1557.64 -735.152L-1557.4 -736.042L-1557.16 -736.931L-1556.93 -737.82L-1556.69 -738.709L-1556.45 -739.598L-1556.21 -740.487L-1555.97 -741.377L-1555.73 -742.266L-1555.5 -743.155L-1555.26 -744.044L-1555.02 -744.933L-1554.78 -745.823L-1554.54 -746.712L-1554.3 -747.601L-1554.07 -748.49L-1553.83 -749.38L-1553.59 -750.269L-1553.35 -751.158L-1553.11 -752.047L-1552.87 -752.937L-1552.64 -753.826L-1552.4 -754.715L-1552.16 -755.604L-1551.92 -756.494L-1551.68 -757.383L-1551.44 -758.272L-1551.21 -759.161L-1550.97 -760.051L-1550.73 -760.94L-1550.49 -761.829L-1550.25 -762.719L-1550.02 -763.608L-1549.78 -764.497L-1549.54 -765.387L-1549.3 -766.276L-1549.06 -767.165L-1548.82 -768.055L-1548.59 -768.944L-1548.35 -769.833L-1548.11 -770.722L-1547.87 -771.612L-1547.63 -772.501L-1547.39 -773.39L-1547.16 -774.28L-1546.92 -775.169L-1546.68 -776.058L-1546.44 -776.948L-1546.2 -777.837L-1545.96 -778.727L-1545.73 -779.616L-1545.49 -780.505L-1545.25 -781.395L-1545.01 -782.284L-1544.77 -783.173L-1544.53 -784.063L-1544.3 -784.952L-1544.06 -785.841L-1543.82 -786.731L-1543.58 -787.62L-1543.34 -788.51L-1543.1 -789.399L-1542.87 -790.288L-1542.63 -791.178L-1542.39 -792.067L-1542.15 -792.956L-1541.91 -793.846L-1541.67 -794.735L-1541.44 -795.625L-1541.2 -796.514L-1540.96 -797.403L-1540.72 -798.293L-1540.48 -799.182L-1540.24 -800.071L-1540.01 -800.961L-1539.77 -801.85L-1539.53 -802.74L-1539.29 -803.629L-1539.05 -804.519L-1538.81 -805.408L-1538.58 -806.297L-1538.34 -807.187L-1538.1 -808.076L-1537.86 -808.966L-1537.62 -809.855L-1537.39 -810.744L-1537.15 -811.634L-1536.91 -812.523L-1536.67 -813.413L-1536.43 -814.302L-1536.19 -815.191L-1535.96 -816.081L-1535.72 -816.97L-1535.48 -817.86L-1535.24 -818.749L-1535 -819.638L-1534.76 -820.528L-1534.67 -820.861L-1534.95 -821.063C-1574.07 -849.263 -1593.29 -899.977 -1580 -949.581C-1562.59 -1014.54 -1496.87 -1052.62 -1432.13 -1035.28C-1367.39 -1017.93 -1329.52 -952.089 -1346.93 -887.131C-1360.54 -836.348 -1403.71 -802.348 -1452.87 -797.799L-1453.22 -797.767L-1453.31 -797.431L-1565.16 -380.002L-1565.21 -379.79L-1565.1 -379.605L-1476.13 -238.833L-1475.52 -237.868L-1475.23 -238.971L-1248.67 -1084.5L-1248.58 -1084.84L-1248.86 -1085.04C-1287.98 -1113.24 -1308.37 -1164.28 -1295.08 -1213.87C-1277.68 -1278.83 -1211.96 -1316.91 -1147.22 -1299.57C-1082.48 -1282.22 -1044.61 -1216.38 -1062.01 -1151.42C-1075.3 -1101.83 -1118.48 -1067.82 -1166.46 -1062.96L-1166.81 -1062.92L-1166.89 -1062.59L-1414.11 -139.978L-1414.16 -139.767L-1414.05 -139.582L-1334.04 -12.6498L-1333.43 -11.6821L-1333.14 -12.787L-975.663 -1346.9L-975.574 -1347.23L-975.854 -1347.44C-1014.98 -1375.64 -1035.37 -1426.67 -1022.08 -1476.27C-1004.67 -1541.23 -938.956 -1579.31 -874.215 -1561.96C-809.474 -1544.62 -771.604 -1478.78 -789.009 -1413.82C-802.299 -1364.22 -845.472 -1330.22 -893.457 -1325.36L-893.801 -1325.32L-893.89 -1324.99L-1169.38 -296.833L-1169.51 -296.35L-1169.03 -296.22L-748.244 -183.471L-747.006 -183.139L-747.692 -184.221L-823.108 -303.218L-750.694 -349.146L-622.7 -147.426L-622.595 -147.261L-622.407 -147.211L-621.708 -147.024L-621.896 -146.321L-621.953 -146.109L-621.836 -145.924L-312.191 343.766C-295.724 370.685 -278.939 396.478 -258.159 420.902ZM-1266.62 66.046L-1266.75 66.529L-1266.26 66.6584L-451.876 284.873L-450.64 285.204L-451.324 284.123L-528.736 161.698L-528.841 161.533L-529.029 161.483L-1240.58 -29.1778L-1241.07 -29.3072L-1241.2 -28.8242L-1266.62 66.046ZM-676.33 -72.3169L-676.435 -72.4804L-676.622 -72.5307L-1191.97 -210.617L-1192.45 -210.746L-1192.58 -210.263L-1218.64 -113.022L-1218.77 -112.539L-1218.28 -112.409L-596.558 54.1813L-595.314 54.5147L-596.008 53.4292L-676.33 -72.3169ZM-888.484 -1513.44C-925.388 -1523.33 -964.34 -1501.76 -974.581 -1463.54C-984.822 -1425.33 -961.871 -1387.17 -924.966 -1377.28C-888.062 -1367.4 -849.11 -1388.96 -838.869 -1427.18C-828.949 -1464.2 -850.386 -1503.23 -888.484 -1513.44ZM-1447.9 -985.882C-1484.81 -995.77 -1523.76 -974.205 -1534 -935.986C-1544.24 -897.772 -1522.48 -859.933 -1484.38 -849.726C-1447.48 -839.838 -1408.53 -861.403 -1398.29 -899.622C-1388.37 -936.644 -1409.8 -975.674 -1447.9 -985.882Z" stroke="#4CA9FF"/>
</svg>
